<svg xmlns="http://www.w3.org/2000/svg" width="1600" height="900" viewBox="0 0 1600 900" fill="none">
  <defs>
    <linearGradient id="bg" x1="0" y1="0" x2="1" y2="1">
      <stop offset="0" stop-color="#0b1a2f" />
      <stop offset="0.45" stop-color="#15324f" />
      <stop offset="1" stop-color="#1b6b4e" />
    </linearGradient>
    <radialGradient id="glow" cx="0.2" cy="0.1" r="0.8">
      <stop offset="0" stop-color="#7cff9a" stop-opacity="0.7" />
      <stop offset="1" stop-color="#7cff9a" stop-opacity="0" />
    </radialGradient>
  </defs>
  <rect width="1600" height="900" fill="url(#bg)" />
  <rect width="1600" height="900" fill="url(#glow)" />
  <circle cx="1180" cy="180" r="140" fill="#5de4ff" opacity="0.2" />
  <circle cx="350" cy="740" r="260" fill="#f5c84c" opacity="0.12" />
  <path d="M0 720 C320 640 520 650 760 690 C1000 730 1220 810 1600 760" stroke="#ffffff" stroke-opacity="0.1" stroke-width="120" />

  <g fill="#f8fafc" opacity="0.9">
    <circle cx="420" cy="380" r="36" />
    <path d="M390 520 L455 420 L520 510 L470 560 Z" />
    <path d="M455 420 L520 510 L600 470" stroke="#f8fafc" stroke-width="32" stroke-linecap="round" />
  </g>

  <g fill="#e2e8f0" opacity="0.85">
    <circle cx="960" cy="320" r="34" />
    <path d="M930 460 L990 360 L1070 430 L1010 510 Z" />
    <path d="M990 360 L1070 430 L1140 400" stroke="#e2e8f0" stroke-width="28" stroke-linecap="round" />
  </g>

  <g fill="#fcd34d" opacity="0.95">
    <circle cx="1240" cy="520" r="30" />
    <path d="M1210 640 L1250 550 L1320 620 L1260 690 Z" />
    <path d="M1250 550 L1320 620 L1390 590" stroke="#fcd34d" stroke-width="26" stroke-linecap="round" />
  </g>

  <circle cx="1080" cy="620" r="16" fill="#f8fafc" opacity="0.9" />
  <path d="M1060 620 L1080 600 L1100 620 L1080 640 Z" fill="#0b1a2f" opacity="0.7" />
</svg>
